<svg width="22" height="26" viewBox="0 0 22 26" fill="none" xmlns="http://www.w3.org/2000/svg">
<path d="M11.1185 7.42567C10.0965 7.42567 8.51453 6.26367 6.84853 6.30567C4.65053 6.33367 2.63453 7.57967 1.50053 9.55367C-0.781466 13.5157 0.912534 19.3677 3.13853 22.5877C4.23053 24.1557 5.51853 25.9197 7.22653 25.8637C8.86453 25.7937 9.48053 24.7997 11.4685 24.7997C13.4425 24.7997 14.0025 25.8637 15.7385 25.8217C17.5025 25.7937 18.6225 24.2257 19.7005 22.6437C20.9465 20.8237 21.4645 19.0597 21.4925 18.9617C21.4505 18.9477 18.0625 17.6457 18.0205 13.7257C17.9925 10.4497 20.6945 8.88167 20.8205 8.81167C19.2805 6.55767 16.9145 6.30567 16.0885 6.24967C13.9325 6.08167 12.1265 7.42567 11.1185 7.42567ZM14.7585 4.12167C15.6685 3.02967 16.2705 1.50367 16.1025 -0.00833321C14.8005 0.0476668 13.2325 0.859667 12.2945 1.95167C11.4545 2.91767 10.7265 4.47167 10.9225 5.95567C12.3645 6.06767 13.8485 5.21367 14.7585 4.12167Z" fill="#101010"/>
</svg>
